# Hierarchical Translation and Rotation (.htr) file
# Generated by EVaRT
[Header]
FileType htr
DataType HTRS
FileVersion 1
NumSegments 23
NumFrames 4
DataFrameRate 120
EulerRotationOrder ZYX
CalibrationUnits mm
RotationUnits Degrees
GlobalAxisofGravity Y
BoneLengthAxis Y
ScaleFactor 1
[SegmentNames&Hierarchy]
#CHILD            PARENT
DaveRoot          GLOBAL
Spine1            DaveRoot
Spine2            Spine1
Spine3            Spine2
Spine4            Spine3
Neck              Spine4
Head              Neck
LClavicle         Spine4
LUpperArm         LClavicle
LLowerArm         LUpperArm
LHand             LLowerArm
RClavicle         Spine4
RUpperArm         RClavicle
RLowerArm         RUpperArm
RHand             RLowerArm
RUpperLeg         DaveRoot
RLowerLeg         RUpperLeg
RFoot             RLowerLeg
RToes             RFoot
LUpperLeg         DaveRoot
LLowerLeg         LUpperLeg
LFoot             LLowerLeg
LToes             LFoot
[BasePosition]
#SegmentName      Tx   Ty   Tz   Rx   Ry   Rz   BoneLength
DaveRoot          1078.678277	988.889323	-667.355416	21.100172	-35.850280	-13.563871	100.000000
Spine1            0.000000	100.000000	0.000000	-14.881963	2.292165	3.740750	100.000000
Spine2            0.000000	100.000000	0.000000	6.530342	0.668586	4.295175	100.000000
Spine3            0.000000	100.000000	0.000000	12.838786	0.191691	4.342582	100.000000
Spine4            0.000000	100.000000	0.000000	14.062130	1.171471	5.872723	100.000000
Neck              0.000000	100.000000	0.000000	7.737895	11.498691	-3.920750	80.000000
Head              0.000000	80.000000	0.000000	-47.820279	-9.378091	-2.499782	200.000000
LClavicle         0.000000	100.000000	0.000000	7.006000	0.163524	-123.648937	200.000000
LUpperArm         0.000000	200.000000	0.000000	39.957204	52.516966	-16.160711	300.000000
LLowerArm         0.000000	300.000000	0.000000	-1.806693	2.175812	1.895763	200.000000
LHand             0.000000	200.000000	0.000000	16.195035	-1.768569	8.793625	120.000000
RClavicle         0.000000	100.000000	0.000000	3.329328	-3.962094	109.315139	200.000000
RUpperArm         0.000000	200.000000	0.000000	31.467517	-27.516660	21.198784	300.000000
RLowerArm         0.000000	300.000000	0.000000	20.023297	-3.682026	-7.348670	200.000000
RHand             0.000000	200.000000	0.000000	6.266882	13.427731	10.826414	120.000000
RUpperLeg         -115.911102	-10.000000	31.058285	22.207319	27.607647	-154.283666	530.000000
RLowerLeg         0.000000	530.000000	0.000000	-15.604109	0.479387	-2.520024	460.000000
RFoot             0.000000	460.000000	0.000000	98.099007	-9.797309	28.788465	130.000000
RToes             0.000000	130.000000	0.000000	-15.148141	0.005479	-0.002881	100.000000
LUpperLeg         115.911102	-10.000000	31.058285	41.660003	-3.682702	-163.432677	530.000000
LLowerLeg         0.000000	530.000000	0.000000	-22.778950	-3.275937	3.046484	460.000000
LFoot             0.000000	460.000000	0.000000	77.647326	-23.190969	-3.622247	130.000000
LToes             0.000000	130.000000	0.000000	14.512714	-0.000000	-0.000086	100.000000
#Beginning of Data.
[DaveRoot]
#Fr	Tx	Ty	Tz	Rx	Ry	Rz	SF
546	-896.490480	-1010.937045	982.428831	115.477007	-25.412613	-167.458897	1.000000	
547	-898.710037	-1009.491610	982.392009	114.352718	-25.706997	-165.504203	1.000000	
548	-901.295964	-1007.657833	982.146932	113.273010	-25.957336	-163.664603	1.000000	
549	-904.110283	-1005.638388	981.780459	112.223033	-26.197578	-161.898729	1.000000	
[Spine1]
#Fr	Tx	Ty	Tz	Rx	Ry	Rz	SF
546	0.000000	0.000000	0.000000	-2.581308	-4.304874	-3.296101	1.000000	
547	0.000000	0.000000	0.000000	-2.694112	-4.240207	-3.075177	1.000000	
548	0.000000	0.000000	0.000000	-2.795187	-4.179650	-2.884324	1.000000	
549	0.000000	0.000000	0.000000	-2.870621	-4.140188	-2.741310	1.000000	
[Spine2]
#Fr	Tx	Ty	Tz	Rx	Ry	Rz	SF
546	0.000000	0.000000	0.000000	-2.581308	-4.304874	-3.296101	1.000000	
547	0.000000	0.000000	0.000000	-2.694112	-4.240207	-3.075177	1.000000	
548	0.000000	0.000000	0.000000	-2.795187	-4.179650	-2.884324	1.000000	
549	0.000000	0.000000	0.000000	-2.870621	-4.140188	-2.741310	1.000000	
[Spine3]
#Fr	Tx	Ty	Tz	Rx	Ry	Rz	SF
546	0.000000	0.000000	0.000000	-2.581308	-4.304874	-3.296101	1.000000	
547	0.000000	0.000000	0.000000	-2.694112	-4.240207	-3.075177	1.000000	
548	0.000000	0.000000	0.000000	-2.795187	-4.179650	-2.884324	1.000000	
549	0.000000	0.000000	0.000000	-2.870621	-4.140188	-2.741310	1.000000	
[Spine4]
#Fr	Tx	Ty	Tz	Rx	Ry	Rz	SF
546	0.000000	0.000000	0.000000	-2.581308	-4.304874	-3.296101	1.000000	
547	0.000000	0.000000	0.000000	-2.694112	-4.240207	-3.075177	1.000000	
548	0.000000	0.000000	0.000000	-2.795187	-4.179650	-2.884324	1.000000	
549	0.000000	0.000000	0.000000	-2.870621	-4.140188	-2.741310	1.000000	
[Neck]
#Fr	Tx	Ty	Tz	Rx	Ry	Rz	SF
546	0.000000	0.000000	0.000000	14.650516	10.932770	16.533172	1.000000	
547	0.000000	0.000000	0.000000	15.130656	10.715134	16.501340	1.000000	
548	0.000000	0.000000	0.000000	15.523157	10.618777	16.500786	1.000000	
549	0.000000	0.000000	0.000000	15.792935	10.657347	16.552144	1.000000	
[Head]
#Fr	Tx	Ty	Tz	Rx	Ry	Rz	SF
546	0.000000	0.000000	0.000000	14.650516	10.932770	16.533172	1.000000	
547	0.000000	0.000000	0.000000	15.130656	10.715134	16.501340	1.000000	
548	0.000000	0.000000	0.000000	15.523157	10.618777	16.500786	1.000000	
549	0.000000	0.000000	0.000000	15.792935	10.657347	16.552144	1.000000	
[LClavicle]
#Fr	Tx	Ty	Tz	Rx	Ry	Rz	SF
546	0.000000	0.000000	0.000000	4.467517	-2.159665	45.076574	1.000000	
547	0.000000	0.000000	0.000000	3.621357	-1.668053	44.027046	1.000000	
548	0.000000	0.000000	0.000000	2.774950	-1.227754	43.175992	1.000000	
549	0.000000	0.000000	0.000000	1.937306	-0.832702	42.578156	1.000000	
[LUpperArm]
#Fr	Tx	Ty	Tz	Rx	Ry	Rz	SF
546	0.000000	0.000000	0.000000	109.726659	67.477410	-173.347643	1.000000	
547	0.000000	0.000000	0.000000	109.456840	67.791971	-171.585057	1.000000	
548	0.000000	0.000000	0.000000	109.240181	68.193469	-169.918389	1.000000	
549	0.000000	0.000000	0.000000	109.150106	68.732949	-168.246361	1.000000	
[LLowerArm]
#Fr	Tx	Ty	Tz	Rx	Ry	Rz	SF
546	0.000000	0.000000	0.000000	-74.475177	0.000000	0.000000	1.000000	
547	0.000000	0.000000	0.000000	-74.592011	0.000000	0.000000	1.000000	
548	0.000000	0.000000	0.000000	-74.918414	0.000000	0.000000	1.000000	
549	0.000000	0.000000	0.000000	-75.455190	0.000000	0.000000	1.000000	
[LHand]
#Fr	Tx	Ty	Tz	Rx	Ry	Rz	SF
546	0.000000	0.000000	0.000000	10.532599	-0.000000	0.000000	1.000000	
547	0.000000	0.000000	0.000000	10.429259	-0.000000	0.000000	1.000000	
548	0.000000	0.000000	0.000000	10.410238	-0.000000	0.000000	1.000000	
549	0.000000	0.000000	0.000000	10.460594	-0.000000	0.000000	1.000000	
[RClavicle]
#Fr	Tx	Ty	Tz	Rx	Ry	Rz	SF
546	0.000000	0.000000	0.000000	9.968257	1.063155	-7.542232	1.000000	
547	0.000000	0.000000	0.000000	8.767424	0.867112	-7.120047	1.000000	
548	0.000000	0.000000	0.000000	7.719042	0.695944	-6.636516	1.000000	
549	0.000000	0.000000	0.000000	6.912229	0.556969	-6.100294	1.000000	
[RUpperArm]
#Fr	Tx	Ty	Tz	Rx	Ry	Rz	SF
546	0.000000	0.000000	0.000000	-48.942712	53.881650	-123.897906	1.000000	
547	0.000000	0.000000	0.000000	-47.648128	57.647174	-124.104115	1.000000	
548	0.000000	0.000000	0.000000	-45.532204	60.613585	-123.384284	1.000000	
549	0.000000	0.000000	0.000000	-42.850994	62.822250	-121.976426	1.000000	
[RLowerArm]
#Fr	Tx	Ty	Tz	Rx	Ry	Rz	SF
546	0.000000	0.000000	0.000000	41.363589	0.000000	0.000000	1.000000	
547	0.000000	0.000000	0.000000	41.352933	0.000000	0.000000	1.000000	
548	0.000000	0.000000	0.000000	40.828540	0.000000	0.000000	1.000000	
549	0.000000	0.000000	0.000000	39.991151	0.000000	0.000000	1.000000	
[RHand]
#Fr	Tx	Ty	Tz	Rx	Ry	Rz	SF
546	0.000000	0.000000	0.000000	20.953500	-37.149566	-60.403182	1.000000	
547	0.000000	0.000000	0.000000	21.897254	-39.047741	-58.819765	1.000000	
548	0.000000	0.000000	0.000000	22.723514	-39.841891	-57.897339	1.000000	
549	0.000000	0.000000	0.000000	23.372351	-39.602072	-57.453385	1.000000	
[RUpperLeg]
#Fr	Tx	Ty	Tz	Rx	Ry	Rz	SF
546	0.000000	0.000000	0.000000	5.671822	-8.300841	-12.291053	1.000000	
547	0.000000	0.000000	0.000000	5.219454	-9.106811	-12.366355	1.000000	
548	0.000000	0.000000	0.000000	4.813414	-9.900236	-12.449609	1.000000	
549	0.000000	0.000000	0.000000	4.471681	-10.655823	-12.551760	1.000000	
[RLowerLeg]
#Fr	Tx	Ty	Tz	Rx	Ry	Rz	SF
546	0.000000	0.000000	0.000000	5.806266	-0.000000	0.000000	1.000000	
547	0.000000	0.000000	0.000000	5.938699	-0.000000	0.000000	1.000000	
548	0.000000	0.000000	0.000000	5.931921	-0.000000	0.000000	1.000000	
549	0.000000	0.000000	0.000000	5.794156	-0.000000	0.000000	1.000000	
[RFoot]
#Fr	Tx	Ty	Tz	Rx	Ry	Rz	SF
546	0.000000	0.000000	0.000000	-30.166165	-31.039946	-13.766984	1.000000	
547	0.000000	0.000000	0.000000	-30.185322	-31.602728	-13.038811	1.000000	
548	0.000000	0.000000	0.000000	-30.089777	-32.137565	-12.252119	1.000000	
549	0.000000	0.000000	0.000000	-29.874745	-32.671199	-11.428322	1.000000	
[RToes]
#Fr	Tx	Ty	Tz	Rx	Ry	Rz	SF
546	0.000000	0.000000	0.000000	47.706063	0.000000	0.000000	1.000000	
547	0.000000	0.000000	0.000000	48.367392	0.000000	0.000000	1.000000	
548	0.000000	0.000000	0.000000	48.866111	-0.000000	-0.000000	1.000000	
549	0.000000	0.000000	0.000000	49.196327	-0.000000	-0.000000	1.000000	
[LUpperLeg]
#Fr	Tx	Ty	Tz	Rx	Ry	Rz	SF
546	0.000000	0.000000	0.000000	-13.332053	-0.982053	-12.875972	1.000000	
547	0.000000	0.000000	0.000000	-13.860998	-2.483226	-12.164038	1.000000	
548	0.000000	0.000000	0.000000	-14.395090	-3.738196	-11.519245	1.000000	
549	0.000000	0.000000	0.000000	-14.891136	-4.657392	-10.992210	1.000000	
[LLowerLeg]
#Fr	Tx	Ty	Tz	Rx	Ry	Rz	SF
546	0.000000	0.000000	0.000000	3.203590	0.000000	0.000000	1.000000	
547	0.000000	0.000000	0.000000	4.336101	0.000000	0.000000	1.000000	
548	0.000000	0.000000	0.000000	5.374082	0.000000	0.000000	1.000000	
549	0.000000	0.000000	0.000000	6.275213	0.000000	0.000000	1.000000	
[LFoot]
#Fr	Tx	Ty	Tz	Rx	Ry	Rz	SF
546	0.000000	0.000000	0.000000	-13.494446	1.818006	-13.172082	1.000000	
547	0.000000	0.000000	0.000000	-13.576486	1.390318	-12.070111	1.000000	
548	0.000000	0.000000	0.000000	-13.675704	1.190054	-10.788780	1.000000	
549	0.000000	0.000000	0.000000	-13.714689	1.069423	-9.324125	1.000000	
[LToes]
#Fr	Tx	Ty	Tz	Rx	Ry	Rz	SF
546	0.000000	0.000000	0.000000	8.039062	0.000000	0.000000	1.000000	
547	0.000000	0.000000	0.000000	8.504591	0.000000	0.000000	1.000000	
548	0.000000	0.000000	0.000000	9.231849	0.000000	0.000000	1.000000	
549	0.000000	0.000000	0.000000	9.957943	0.000000	0.000000	1.000000	
